<?xml version="1.0" encoding="utf-8"?>
<!-- Generator: Adobe Illustrator 19.0.0, SVG Export Plug-In . SVG Version: 6.00 Build 0)  -->
<svg version="1.1" id="Layer_1" xmlns="http://www.w3.org/2000/svg" xmlns:xlink="http://www.w3.org/1999/xlink" x="0px" y="0px"
	 viewBox="-91 93 16 16" style="enable-background:new -91 93 16 16;" xml:space="preserve">
<style type="text/css">
	.st0{display:none;}
	.st1{display:inline;}
	.st2{fill:#231F20;}
	.st3{font-family:'MyriadPro-Regular';}
	.st4{font-size:10.2623px;}
	.st5{fill:#282828;}
	.st6{enable-background:new    ;}
</style>
<g id="Layer_1_copy" class="st0">
	<g id="Layer_2_1_" class="st1">
		<text transform="matrix(1 0 0 1 -87.2583 104.8428)" class="st2 st3 st4"></text>
	</g>
</g>
<g id="Layer_1_2_">
	<g id="Layer_1_1_" class="st0">
		<g id="Layer_2_2_" class="st1">
			<g>
				<g>
					<path class="st5" d="M-80.3,102.7c-0.4,0-0.8,0.1-1,0.4l-3-1.8c0-0.1,0-0.2,0-0.3c0-0.1,0-0.2,0-0.3l3-1.8
						c0.3,0.2,0.7,0.4,1,0.4c0.9,0,1.7-0.8,1.7-1.7c0-0.9-0.8-1.7-1.7-1.7c-0.9,0-1.7,0.8-1.7,1.7c0,0.1,0,0.2,0,0.3l-3,1.8
						c-0.3-0.2-0.7-0.4-1-0.4c-0.9,0-1.7,0.8-1.7,1.7c0,0.9,0.8,1.7,1.7,1.7c0.4,0,0.8-0.1,1-0.4l3,1.8c0,0.1,0,0.2,0,0.3
						c0,0.9,0.8,1.7,1.7,1.7s1.7-0.8,1.7-1.7C-78.6,103.5-79.4,102.7-80.3,102.7z"/>
				</g>
			</g>
		</g>
	</g>
	<g id="Layer_2_6_">
		<g class="st6">
			<path class="st5" d="M-82.8,95.9v10.1l-3.1-3.1h-3v-3.8h3L-82.8,95.9z M-81,104l-0.9-0.8c0.3-0.3,0.5-0.7,0.7-1.1
				c0.2-0.4,0.2-0.8,0.2-1.2c0-0.4-0.1-0.8-0.2-1.2s-0.4-0.7-0.6-1L-81,98c0.4,0.4,0.7,0.9,1,1.4c0.2,0.5,0.3,1.1,0.3,1.6
				c0,0.5-0.1,1-0.3,1.5S-80.5,103.6-81,104z"/>
		</g>
	</g>
</g>
</svg>
